<svg xmlns="http://www.w3.org/2000/svg" viewBox="0 0 64 64" width="64" height="64" role="img" aria-label="Ícone de tempo parcialmente nublado">
  <circle cx="24" cy="22" r="12" fill="#f4b400" stroke="#1a1a1a" stroke-width="2"/>
  <g stroke="#1a1a1a" stroke-width="2" stroke-linecap="round">
    <line x1="24" y1="2" x2="24" y2="6"/>
    <line x1="8" y1="22" x2="4" y2="22"/>
    <line x1="10.5" y1="8.5" x2="7.5" y2="5.5"/>
    <line x1="37.5" y1="8.5" x2="40.5" y2="5.5"/>
  </g>
  <path d="M14 46c-5 0-9-4-9-9s4-9 9-9c1.3-5.5 6.2-9.5 12-9.5 6.4 0 11.6 4.7 12.5 10.9 5.4.6 9.5 5.2 9.5 10.6 0 5.9-4.8 10.7-10.7 10.7H16.7C15.8 46 14.9 46 14 46z"
        fill="#ffffff" stroke="#1a1a1a" stroke-width="2" stroke-linejoin="round"/>
</svg>
